<svg width="277" height="50" viewBox="0 0 277 50" fill="none" xmlns="http://www.w3.org/2000/svg">
<path d="M68.6426 39.8036L68.6426 9.55779L72.9099 9.55779L79.8738 31.4644L79.8738 9.55779L82.8861 9.55779L82.8861 39.8036L79.3647 39.8036L71.6548 15.4197L71.6548 39.8036L68.6426 39.8036ZM86.013 32.5086L86.013 16.8744C86.013 14.498 86.594 12.6328 87.7559 11.279C88.9177 9.93231 90.6247 9.25537 92.8766 9.25537C95.1501 9.25537 96.8786 9.93231 98.0548 11.279C99.2382 12.6328 99.8263 14.498 99.8263 16.8744L99.8263 32.5086C99.8263 34.8562 99.2382 36.7142 98.0548 38.0681C96.8786 39.4291 95.1501 40.106 92.8766 40.106C90.639 40.106 88.9321 39.4291 87.763 38.0681C86.594 36.7142 86.013 34.8562 86.013 32.5086ZM89.2835 32.6743C89.2835 34.0785 89.5847 35.1587 90.18 35.9076C90.7824 36.6638 91.6789 37.0383 92.8766 37.0383C95.2721 37.0383 96.4698 35.5835 96.4698 32.6743L96.4698 16.6872C96.4698 15.2973 96.1757 14.2243 95.5805 13.4609C94.9924 12.7048 94.0887 12.3231 92.8766 12.3231C91.6789 12.3231 90.7824 12.7048 90.18 13.4609C89.5847 14.2243 89.2835 15.2973 89.2835 16.6872L89.2835 32.6743ZM102.093 9.55779L105.449 9.55779L110.369 36.0013L115.26 9.55779L118.402 9.55779L112.779 39.8036L107.758 39.8036L102.093 9.55779ZM119.004 39.8036L124.756 9.55779L129.647 9.55779L135.399 39.8036L132.043 39.8036L130.881 33.7112L123.279 33.7112L122.145 39.8036L119.004 39.8036ZM123.824 30.8163L130.329 30.8163L127.037 13.5906L123.824 30.8163ZM137.285 9.55779L140.556 9.55779L144.084 35.3603L147.434 9.601L150.726 9.601L154.053 35.4252L157.467 9.55779L160.393 9.55779L156.298 39.8036L151.866 39.8036L148.839 18.1418L145.712 39.8036L141.424 39.8036L137.285 9.55779ZM161.57 39.8036L167.322 9.55779L172.213 9.55779L177.965 39.8036L174.608 39.8036L173.446 33.7112L165.844 33.7112L164.711 39.8036L161.57 39.8036ZM166.389 30.8163L172.894 30.8163L169.602 13.5906L166.389 30.8163ZM180.582 39.8036L180.582 9.55779L187.288 9.55779C189.612 9.55779 191.312 10.1411 192.387 11.3005C193.47 12.46 194.008 14.1811 194.008 16.4711L194.008 18.9412C194.008 22.297 192.768 24.3711 190.272 25.1632C191.606 25.5521 192.567 26.2794 193.162 27.3452C193.757 28.4038 194.051 29.7793 194.051 31.4644L194.051 36.174C194.051 37.8448 194.238 39.0546 194.611 39.8036L191.254 39.8036C190.881 38.9322 190.695 37.708 190.695 36.1308L190.695 31.378C190.695 29.7361 190.329 28.5766 189.598 27.8997C188.873 27.2228 187.769 26.8843 186.298 26.8843L183.939 26.8843L183.939 39.8036L180.582 39.8036ZM183.939 23.8165L186.42 23.8165C187.855 23.8165 188.923 23.5141 189.633 22.9163C190.343 22.3187 190.695 21.2385 190.695 19.6757L190.695 16.7664C190.695 15.3693 190.415 14.3323 189.863 13.6482C189.311 12.9641 188.421 12.6256 187.202 12.6256L183.939 12.6256L183.939 23.8165ZM197.515 39.8036L197.515 9.55779L204.558 9.55779C206.839 9.55779 208.539 10.2132 209.672 11.531C210.805 12.8416 211.372 14.6996 211.372 17.0904L211.372 32.3358C211.372 34.7122 210.805 36.5486 209.672 37.852C208.539 39.1554 206.839 39.8036 204.558 39.8036L197.515 39.8036ZM200.872 36.7358L204.53 36.7358C206.911 36.7358 208.101 35.3099 208.101 32.4509L208.101 16.9104C208.101 14.0514 206.896 12.6256 204.487 12.6256L200.872 12.6256L200.872 36.7358ZM213.394 12.6256L213.394 9.55779L227.853 9.55779L227.853 12.6256L222.302 12.6256L222.302 39.8036L218.945 39.8036L218.945 12.6256L213.394 12.6256ZM230.169 39.8036L230.169 9.55779L242.563 9.55779L242.563 12.6256L233.526 12.6256L233.526 22.9092L240.884 22.9092L240.884 25.9769L233.526 25.9769L233.526 36.7358L242.563 36.7358L242.563 39.8036L230.169 39.8036ZM245.395 32.5086L245.395 16.8744C245.395 14.5123 245.962 12.6472 247.088 11.2934C248.214 9.93231 249.892 9.25537 252.13 9.25537C254.375 9.25537 256.067 9.93232 257.201 11.2861C258.341 12.6472 258.907 14.5052 258.907 16.86L258.907 19.5822L255.766 19.5822L255.766 16.6799C255.766 13.7778 254.583 12.3231 252.216 12.3231C251.033 12.3231 250.143 12.7048 249.555 13.4609C248.96 14.2243 248.666 15.2973 248.666 16.6872L248.666 32.6743C248.666 34.0641 248.96 35.1371 249.555 35.9004C250.143 36.6566 251.033 37.0383 252.216 37.0383C254.583 37.0383 255.766 35.5835 255.766 32.6743L255.766 28.7495L258.907 28.7495L258.907 32.5086C258.907 34.8706 258.341 36.7286 257.201 38.0825C256.067 39.4291 254.375 40.106 252.13 40.106C249.892 40.106 248.214 39.4291 247.088 38.0825C245.962 36.7286 245.395 34.8706 245.395 32.5086ZM261.999 39.8036L261.999 9.55779L265.355 9.55779L265.355 23.1684L272.757 23.1684L272.757 9.55779L276.113 9.55779L276.113 39.8036L272.757 39.8036L272.757 26.193L265.355 26.193L265.355 39.8036L261.999 39.8036Z" fill="white"/>
<path fill-rule="evenodd" clip-rule="evenodd" d="M46.6743 27.8366L33.705 35.3759L24.1676 30.0883L24.1705 34.5435L33.705 39.9558L50.6215 30.2015L50.6406 19.0514L46.6681 16.8423L46.6743 27.8366Z" fill="white"/>
<path fill-rule="evenodd" clip-rule="evenodd" d="M7.87988 43.834L17.5129 49.4152L21.433 47.1055L11.8944 41.642L11.8649 26.5257L21.2725 20.9586L17.3178 18.8699L7.91297 24.278L7.87988 43.834Z" fill="white"/>
<path fill-rule="evenodd" clip-rule="evenodd" d="M16.9273 9.46753L4.28615 16.7599L0.00422015 19.2408L-2.0955e-08 30.3756L3.98224 32.5969L3.96402 21.5943L16.8668 14.021L26.4353 19.3914L26.47 14.9613L16.9273 9.46753Z" fill="white"/>
<path fill-rule="evenodd" clip-rule="evenodd" d="M7.73999 5.55088L7.74394 10.112L17.513 4.677L30.3862 12.0564L30.4373 22.9961L34.3677 20.7274L34.3237 10.0706L17.513 0.0898438L7.73999 5.55088Z" fill="white"/>
<path fill-rule="evenodd" clip-rule="evenodd" d="M29.2954 2.28006L38.7501 7.75396L38.7747 22.8962L29.3543 28.4612L33.3159 30.5457L42.704 25.1055L42.7693 5.59658L33.1208 3.834e-09L29.2954 2.28006Z" fill="white"/>
<path fill-rule="evenodd" clip-rule="evenodd" d="M16.2285 28.6895L16.2503 39.5422L33.1181 49.3463L42.9025 43.8917L42.8945 39.3247L33.2486 44.6874L20.2369 37.3935L20.1949 26.4402L16.2285 28.6895Z" fill="white"/>
</svg>
