<svg width="255" height="217" viewBox="0 0 255 217" fill="none" xmlns="http://www.w3.org/2000/svg">
<path d="M207.115 101.394L228.206 101.394C229.049 104.536 231.006 107.265 233.712 109.072C236.419 110.879 239.689 111.64 242.915 111.215C246.141 110.79 249.102 109.206 251.247 106.759C253.393 104.313 254.575 101.17 254.575 97.916C254.575 94.6622 253.393 91.5192 251.247 89.0726C249.102 86.626 246.141 85.0425 242.915 84.617C239.689 84.1916 236.419 84.9532 233.712 86.76C231.006 88.5668 229.049 91.2957 228.206 94.4383L207.115 94.4383L207.115 77.5941L222.764 77.5941C223.317 77.594 223.862 77.4622 224.354 77.2096C224.846 76.9569 225.27 76.5908 225.592 76.1414L236.443 60.9844C239.487 62.1214 242.841 62.1132 245.88 60.9613C248.918 59.8094 251.435 57.5924 252.961 54.7231C254.486 51.8538 254.917 48.5277 254.173 45.3644C253.429 42.2011 251.56 39.4161 248.915 37.528C246.27 35.6399 243.029 34.7775 239.795 35.1014C236.562 35.4252 233.556 36.9132 231.338 39.2883C229.12 41.6635 227.841 44.7637 227.739 48.0118C227.637 51.2599 228.719 54.4345 230.783 56.9442L220.976 70.6386L207.113 70.6386L207.113 57.7431C207.113 56.8207 206.746 55.9362 206.094 55.284C205.442 54.6318 204.557 54.2654 203.635 54.2654C198.256 54.2643 193.015 52.5645 188.659 49.4084L207.846 25.7598C210.828 27.0976 214.195 27.3053 217.32 26.3441C220.444 25.383 223.112 23.3186 224.827 20.5358C226.541 17.7529 227.185 14.4415 226.639 11.2188C226.093 7.9961 224.394 5.08196 221.858 3.01959C219.322 0.957224 216.122 -0.112648 212.856 0.00939953C209.59 0.131447 206.479 1.43709 204.104 3.68295C201.729 5.92881 200.252 8.96165 199.948 12.2161C199.643 15.4706 200.533 18.7247 202.45 21.3719L183.593 44.6231C179.932 40.077 177.936 34.415 177.937 28.5777C177.937 27.6555 177.57 26.7713 176.918 26.1192C176.266 25.4671 175.382 25.1005 174.46 25.1L80.2882 25.1C79.366 25.1005 78.4817 25.4671 77.8296 26.1192C77.1775 26.7713 76.811 27.6555 76.8104 28.5777C76.812 34.415 74.8162 40.077 71.1546 44.6231L52.2973 21.3699C54.207 18.7294 55.0917 15.4848 54.7866 12.2405C54.4815 8.99613 53.0074 5.97334 50.6388 3.73526C48.2703 1.49717 45.169 0.196436 41.9126 0.0753743C38.6562 -0.0456874 35.4668 1.02118 32.9386 3.07722C30.4105 5.13326 28.716 8.03826 28.1708 11.251C27.6257 14.4637 28.267 17.7651 29.9754 20.54C31.6838 23.315 34.3427 25.3742 37.4567 26.3342C40.5708 27.2941 43.9276 27.0893 46.9018 25.7578L66.089 49.4064C61.7332 52.5625 56.4919 54.2624 51.1129 54.2634C50.1905 54.2634 49.306 54.6298 48.6538 55.282C48.0015 55.9342 47.6351 56.8188 47.6351 57.7411L47.6351 70.6366L33.7738 70.6366L23.9686 56.9422C26.0634 54.4097 27.1654 51.2015 27.0689 47.9163C26.9724 44.631 25.684 41.4931 23.4441 39.0879C21.2043 36.6827 18.1658 35.1745 14.8958 34.8447C11.6257 34.5149 8.34729 35.3861 5.67225 37.2956C2.99721 39.2051 1.10822 42.0226 0.3577 45.2225C-0.392818 48.4223 0.0463989 51.7859 1.59341 54.6857C3.14042 57.5855 5.68955 59.8235 8.76523 60.9821C11.8409 62.1407 15.2331 62.1408 18.3088 60.9824L29.1594 76.1394C29.481 76.5889 29.9051 76.9553 30.3965 77.2082C30.888 77.4612 31.4326 77.5935 31.9853 77.5941L47.6351 77.5941L47.6351 94.4383L26.5441 94.4383C25.7005 91.2957 23.7434 88.5668 21.0373 86.76C18.3312 84.9532 15.0606 84.1916 11.8347 84.617C8.60875 85.0425 5.64744 86.626 3.5023 89.0726C1.35716 91.5192 0.174446 94.6622 0.174446 97.916C0.174446 101.17 1.35716 104.313 3.5023 106.759C5.64744 109.206 8.60875 110.79 11.8347 111.215C15.0606 111.64 18.3312 110.879 21.0373 109.072C23.7434 107.265 25.7005 104.536 26.5441 101.394L47.6351 101.394L47.6351 120.998C47.6351 121.871 47.6848 122.735 47.7146 123.604L30.4948 123.604C29.8499 123.604 29.2178 123.783 28.669 124.122C28.1201 124.461 27.6762 124.945 27.3867 125.521L16.3056 147.602C13.1005 146.926 9.75914 147.44 6.90446 149.046C4.04977 150.652 1.87666 153.241 0.790306 156.332C-0.296044 159.422 -0.221476 162.801 1.00011 165.841C2.22169 168.88 4.5069 171.371 7.42965 172.85C10.3524 174.328 13.7132 174.694 16.8853 173.877C20.0575 173.061 22.8245 171.119 24.6705 168.413C26.5164 165.707 27.3153 162.423 26.9182 159.171C26.521 155.92 24.9549 152.924 22.5119 150.742L32.6411 130.551L48.281 130.551C50.3647 146.348 57.5776 161.023 68.8116 172.322L46.2639 191.614C43.5658 189.755 40.2833 188.94 37.0285 189.321C33.7738 189.703 30.769 191.255 28.5744 193.689C26.3798 196.123 25.1452 199.272 25.1009 202.548C25.0566 205.825 26.2055 209.006 28.3335 211.498C30.4614 213.99 33.4232 215.624 36.6664 216.093C39.9096 216.563 43.213 215.837 45.9604 214.051C48.7079 212.264 50.712 209.54 51.5989 206.385C52.4859 203.23 52.1952 199.861 50.781 196.905L74.0064 177.032C75.7393 178.469 77.5239 179.856 79.4038 181.137L125.415 212.537C125.994 212.927 126.677 213.136 127.375 213.136C128.073 213.136 128.755 212.927 129.334 212.537L175.346 181.137C177.226 179.856 179.01 178.469 180.743 177.032L203.969 196.905C202.57 199.841 202.287 203.186 203.172 206.317C204.056 209.447 206.049 212.149 208.777 213.919C211.506 215.69 214.785 216.408 218.004 215.94C221.223 215.473 224.163 213.851 226.275 211.377C228.387 208.904 229.528 205.747 229.486 202.494C229.443 199.242 228.22 196.116 226.044 193.698C223.868 191.28 220.887 189.736 217.657 189.353C214.427 188.969 211.167 189.773 208.486 191.614L185.938 172.322C197.172 161.023 204.385 146.348 206.469 130.551L222.107 130.551L232.242 150.734C229.849 152.889 228.321 155.84 227.94 159.037C227.56 162.235 228.354 165.462 230.174 168.118C231.994 170.774 234.717 172.679 237.836 173.478C240.956 174.277 244.259 173.916 247.132 172.463C250.006 171.009 252.253 168.562 253.457 165.575C254.661 162.589 254.74 159.266 253.678 156.226C252.617 153.186 250.487 150.635 247.686 149.047C244.884 147.46 241.602 146.943 238.448 147.594L227.367 125.513C227.078 124.937 226.634 124.453 226.085 124.114C225.536 123.775 224.904 123.596 224.259 123.596L207.039 123.596C207.069 122.727 207.119 121.863 207.119 120.99L207.115 101.394ZM241.147 91.4574C242.424 91.4574 243.673 91.8362 244.735 92.5458C245.797 93.2555 246.625 94.2642 247.114 95.4444C247.603 96.6246 247.731 97.9232 247.481 99.1761C247.232 100.429 246.617 101.58 245.714 102.483C244.811 103.386 243.66 104.001 242.407 104.251C241.154 104.5 239.855 104.372 238.675 103.883C237.495 103.394 236.486 102.566 235.777 101.504C235.067 100.442 234.688 99.1934 234.688 97.916C234.69 96.2037 235.371 94.5622 236.582 93.3514C237.793 92.1406 239.435 91.4595 241.147 91.4574ZM241.147 41.974C242.424 41.974 243.673 42.3528 244.735 43.0625C245.797 43.7722 246.625 44.7809 247.114 45.9611C247.603 47.1412 247.731 48.4398 247.481 49.6927C247.232 50.9456 246.617 52.0964 245.714 52.9997C244.811 53.9029 243.66 54.518 242.407 54.7673C241.154 55.0165 239.855 54.8886 238.675 54.3997C237.495 53.9109 236.486 53.083 235.777 52.0209C235.067 50.9588 234.688 49.7101 234.688 48.4327C234.692 46.7214 235.374 45.0814 236.584 43.8719C237.795 42.6624 239.436 41.9821 241.147 41.98L241.147 41.974ZM7.14425 48.4386C7.14425 47.1612 7.52304 45.9125 8.23273 44.8504C8.94242 43.7883 9.95113 42.9605 11.1313 42.4716C12.3115 41.9828 13.6101 41.8549 14.8629 42.1041C16.1158 42.3533 17.2666 42.9684 18.1699 43.8717C19.0731 44.7749 19.6883 45.9258 19.9375 47.1786C20.1867 48.4315 20.0588 49.7301 19.57 50.9103C19.0811 52.0904 18.2533 53.0991 17.1912 53.8088C16.129 54.5185 14.8803 54.8973 13.6029 54.8973C11.8906 54.8952 10.2491 54.2141 9.03827 53.0033C7.82749 51.7925 7.14635 50.1509 7.14425 48.4386ZM13.6029 104.375C12.3255 104.375 11.0768 103.996 10.0147 103.286C8.95255 102.577 8.12473 101.568 7.63589 100.388C7.14704 99.2075 7.01914 97.9089 7.26835 96.656C7.51756 95.4032 8.13269 94.2523 9.03595 93.3491C9.93921 92.4458 11.09 91.8307 12.3429 91.5815C13.5958 91.3323 14.8944 91.4602 16.0745 91.949C17.2547 92.4378 18.2634 93.2657 18.9731 94.3278C19.6828 95.3899 20.0616 96.6386 20.0616 97.916C20.0595 99.6283 19.3783 101.27 18.1676 102.481C16.9568 103.691 15.3152 104.373 13.6029 104.375ZM13.6029 167.201C12.3255 167.201 11.0768 166.822 10.0147 166.112C8.95255 165.402 8.12473 164.394 7.63589 163.214C7.14704 162.033 7.01914 160.735 7.26835 159.482C7.51756 158.229 8.13269 157.078 9.03595 156.175C9.93921 155.272 11.09 154.657 12.3429 154.407C13.5958 154.158 14.8944 154.286 16.0745 154.775C17.2547 155.264 18.2634 156.092 18.9731 157.154C19.6828 158.216 20.0616 159.465 20.0616 160.742C20.0595 162.454 19.3783 164.096 18.1676 165.307C16.9568 166.517 15.3152 167.199 13.6029 167.201ZM247.605 160.742C247.605 162.019 247.227 163.268 246.517 164.33C245.807 165.392 244.799 166.22 243.618 166.709C242.438 167.198 241.14 167.326 239.887 167.077C238.634 166.827 237.483 166.212 236.58 165.309C235.677 164.406 235.061 163.255 234.812 162.002C234.563 160.749 234.691 159.451 235.18 158.27C235.669 157.09 236.496 156.082 237.559 155.372C238.621 154.662 239.869 154.283 241.147 154.283C242.859 154.285 244.501 154.967 245.711 156.177C246.922 157.388 247.603 159.03 247.605 160.742ZM213.305 7.05745C214.582 7.05745 215.831 7.43625 216.893 8.14593C217.955 8.85562 218.783 9.86433 219.272 11.0445C219.761 12.2247 219.889 13.5233 219.64 14.7761C219.39 16.029 218.775 17.1798 217.872 18.0831C216.969 18.9864 215.818 19.6015 214.565 19.8507C213.312 20.0999 212.014 19.972 210.833 19.4832C209.653 18.9943 208.645 18.1665 207.935 17.1044C207.225 16.0422 206.846 14.7935 206.846 13.5161C206.848 11.8038 207.53 10.1623 208.74 8.95148C209.951 7.7407 211.593 7.05956 213.305 7.05745ZM34.9861 13.5161C34.9861 12.2387 35.3649 10.99 36.0746 9.92788C36.7843 8.86576 37.793 8.03793 38.9731 7.54909C40.1533 7.06025 41.4519 6.93234 42.7048 7.18155C43.9576 7.43076 45.1085 8.04589 46.0117 8.94915C46.915 9.85242 47.5301 11.0032 47.7793 12.2561C48.0285 13.509 47.9006 14.8076 47.4118 15.9878C46.9229 17.1679 46.0951 18.1766 45.033 18.8863C43.9709 19.596 42.7222 19.9748 41.4448 19.9748C39.7325 19.9727 38.0909 19.2915 36.8801 18.0808C35.6693 16.87 34.9882 15.2284 34.9861 13.5161ZM38.6884 209.132C37.411 209.132 36.1623 208.754 35.1001 208.044C34.038 207.334 33.2102 206.325 32.7214 205.145C32.2325 203.965 32.1046 202.667 32.3538 201.414C32.603 200.161 33.2182 199.01 34.1214 198.107C35.0247 197.203 36.1755 196.588 37.4284 196.339C38.6812 196.09 39.9799 196.218 41.16 196.707C42.3402 197.195 43.3489 198.023 44.0586 199.085C44.7683 200.148 45.1471 201.396 45.1471 202.674C45.145 204.386 44.4638 206.028 43.253 207.238C42.0423 208.449 40.4007 209.13 38.6884 209.132ZM171.425 175.394L127.375 205.45L83.3248 175.394C74.4665 169.354 67.2181 161.241 62.2103 151.761C57.2024 142.28 54.5867 131.72 54.5906 120.998L54.5906 61.036C61.9824 60.1754 68.8671 56.8442 74.1292 51.5821C79.3912 46.32 82.7225 39.4353 83.5831 32.0436L171.167 32.0436C172.027 39.4353 175.359 46.32 180.621 51.5821C185.883 56.8442 192.767 60.1754 200.159 61.036L200.159 120.998C200.163 131.72 197.547 142.28 192.539 151.761C187.532 161.241 180.283 169.354 171.425 175.394ZM222.52 202.674C222.52 203.951 222.141 205.2 221.432 206.262C220.722 207.324 219.713 208.152 218.533 208.641C217.353 209.13 216.054 209.257 214.801 209.008C213.548 208.759 212.398 208.144 211.494 207.241C210.591 206.337 209.976 205.187 209.727 203.934C209.478 202.681 209.605 201.382 210.094 200.202C210.583 199.022 211.411 198.013 212.473 197.303C213.535 196.594 214.784 196.215 216.061 196.215C217.774 196.217 219.415 196.898 220.626 198.109C221.837 199.32 222.518 200.961 222.52 202.674Z" fill="#1D4D7A"/>
<path d="M187.242 73.4068C187.242 72.734 187.047 72.0755 186.68 71.5111C186.314 70.9468 185.792 70.5008 185.177 70.2272C174.836 65.6343 166.567 57.3666 161.973 47.0257C161.7 46.4108 161.254 45.8884 160.69 45.5219C160.125 45.1554 159.467 44.9605 158.794 44.9609L95.9539 44.9609C95.281 44.9605 94.6224 45.1554 94.058 45.5219C93.4936 45.8884 93.0477 46.4108 92.7743 47.0257C88.1814 57.3669 79.9136 65.6354 69.5727 70.2292C68.958 70.5028 68.4358 70.9488 68.0693 71.5131C67.7028 72.0775 67.5078 72.7359 67.5079 73.4088L67.5079 120.998C67.5037 129.619 69.6062 138.11 73.6326 145.732C77.659 153.354 83.4873 159.877 90.6101 164.732L125.419 188.484C125.998 188.875 126.681 189.084 127.379 189.084C128.077 189.084 128.759 188.875 129.338 188.484L164.14 164.732C171.26 159.878 177.086 153.357 181.112 145.737C185.137 138.118 187.24 129.63 187.238 121.012L187.242 73.4068ZM180.286 120.998C180.288 128.483 178.461 135.855 174.964 142.472C171.467 149.09 166.407 154.753 160.223 158.969L127.375 181.392L94.5251 158.969C88.3415 154.753 83.2815 149.089 79.7852 142.472C76.2888 135.854 74.462 128.483 74.4634 120.998L74.4634 75.6127C84.7352 70.509 93.0572 62.1877 98.1618 51.9164L156.588 51.9164C161.692 62.1877 170.014 70.509 180.286 75.6127L180.286 120.998Z" fill="#1D4D7A"/>
</svg>
