<svg width="249" height="216" viewBox="0 0 249 216" fill="none" xmlns="http://www.w3.org/2000/svg">
<path d="M244.95 186.877L231.228 186.877L231.228 119.565C231.228 117.552 229.597 115.922 227.585 115.922C225.572 115.922 223.941 117.552 223.941 119.565L223.941 186.877L62.7343 186.877C60.7221 186.877 59.0907 188.508 59.0907 190.52C59.0907 192.533 60.7221 194.164 62.7343 194.164L241.306 194.164L241.306 199.619C241.306 204.633 237.227 208.713 232.212 208.713L17.3763 208.713C12.3618 208.713 8.282 204.634 8.282 199.619L8.282 194.164L47.2064 194.164C49.2186 194.164 50.85 192.533 50.85 190.52C50.85 188.508 49.2186 186.877 47.2064 186.877L25.6472 186.877L25.6472 119.565C25.6472 117.552 24.0159 115.922 22.0037 115.922C19.9914 115.922 18.3601 117.552 18.3601 119.565L18.3601 186.877L4.63892 186.877C2.62671 186.877 0.995361 188.508 0.995361 190.52L0.995361 199.619C0.995361 208.652 8.3437 216 17.3768 216L232.212 216C241.245 216 248.594 208.652 248.594 199.619L248.594 190.52C248.593 188.508 246.962 186.877 244.95 186.877Z" fill="#1D4D7A"/>
<path d="M173.254 46.7604L217.191 46.7604C220.913 46.7604 223.942 49.7889 223.942 53.5112L223.942 74.637C223.942 76.6497 225.573 78.2806 227.585 78.2806C229.597 78.2806 231.229 76.6497 231.229 74.637L231.229 53.5112C231.229 45.7703 224.931 39.4733 217.191 39.4733L173.254 39.4733C171.242 39.4733 169.61 41.1041 169.61 43.1168C169.61 45.1295 171.242 46.7604 173.254 46.7604Z" fill="#1D4D7A"/>
<path d="M22.0051 78.2806C24.0174 78.2806 25.6487 76.6497 25.6487 74.637L25.6487 53.5112C25.6487 49.7889 28.6772 46.7604 32.3995 46.7604L75.8507 46.7604C77.8629 46.7604 79.4942 45.1295 79.4942 43.1168C79.4942 41.1041 77.8629 39.4733 75.8507 39.4733L32.3995 39.4733C24.6591 39.4733 18.3616 45.7708 18.3616 53.5112L18.3616 74.637C18.3616 76.6493 19.9929 78.2806 22.0051 78.2806Z" fill="#1D4D7A"/>
<path d="M36.5796 54.0477C34.5674 54.0477 32.936 55.6786 32.936 57.6913L32.936 74.6377C32.936 76.6504 34.5674 78.2813 36.5796 78.2813C38.5918 78.2813 40.2232 76.6504 40.2232 74.6377L40.2232 61.3349L68.3024 61.3349C70.3146 61.3349 71.9459 59.704 71.9459 57.6913C71.9459 55.6786 70.3146 54.0477 68.3024 54.0477L36.5796 54.0477Z" fill="#1D4D7A"/>
<path d="M213.012 78.2813C215.025 78.2813 216.656 76.6504 216.656 74.6377L216.656 57.6913C216.656 55.6786 215.025 54.0477 213.012 54.0477L180.389 54.0477C178.377 54.0477 176.746 55.6786 176.746 57.6913C176.746 59.704 178.377 61.3349 180.389 61.3349L209.369 61.3349L209.369 74.6377C209.369 76.65 211 78.2813 213.012 78.2813Z" fill="#1D4D7A"/>
<path d="M36.5796 115.922C34.5674 115.922 32.936 117.552 32.936 119.565L32.936 175.946C32.936 177.959 34.5674 179.59 36.5796 179.59L213.012 179.59C215.024 179.59 216.656 177.959 216.656 175.946L216.656 119.565C216.656 117.552 215.024 115.922 213.012 115.922C211 115.922 209.368 117.552 209.368 119.565L209.368 172.303L40.2232 172.303L40.2232 119.565C40.2232 117.553 38.5918 115.922 36.5796 115.922Z" fill="#1D4D7A"/>
<path d="M111.285 114.787C112.609 116.594 114.736 117.673 116.976 117.673L131.711 117.673C133.951 117.673 136.079 116.593 137.402 114.787C138.726 112.979 139.112 110.626 138.436 108.49L135.647 99.6837C137.794 96.935 138.86 93.514 138.654 90.0064C138.229 82.7888 132.468 77.0072 125.251 76.5588C121.249 76.3052 117.439 77.682 114.527 80.419C111.655 83.1181 110.008 86.9259 110.008 90.8658C110.008 94.0581 111.082 97.174 113.04 99.6832L110.251 108.489C109.576 110.626 109.962 112.979 111.285 114.787ZM118.899 95.3425C117.85 94.0687 117.296 92.521 117.296 90.8663C117.296 88.9007 118.085 87.076 119.518 85.7294C120.95 84.3832 122.827 83.7089 124.8 83.8323C128.285 84.0485 131.175 86.9487 131.38 90.4349C131.485 92.2285 130.919 93.9735 129.785 95.3474C128.358 97.0774 127.905 99.3713 128.575 101.486L131.393 110.386L117.296 110.386L120.114 101.487C120.782 99.3743 120.328 97.0774 118.899 95.3425Z" fill="#1D4D7A"/>
<path d="M11.5331 108.634L18.5846 108.634C23.671 108.634 27.9957 105.324 29.5245 100.745L38.87 100.745C40.3988 105.324 44.7235 108.634 49.8099 108.634L56.8614 108.634C61.9478 108.634 66.2725 105.324 67.8013 100.745L76.6469 100.745L76.6469 120.271C76.6469 129.288 83.9826 136.623 92.9997 136.623L141.192 136.623C143.204 136.623 144.835 134.992 144.835 132.98C144.835 130.967 143.204 129.336 141.192 129.336L92.9997 129.336C88.0008 129.336 83.9341 125.27 83.9341 120.271L83.9341 67.7979C83.9341 66.1812 85.2492 64.8661 86.8659 64.8661L161.824 64.8661C163.44 64.8661 164.755 66.1812 164.755 67.7979L164.755 120.271C164.755 124.96 161.097 128.928 156.428 129.303C154.422 129.464 152.927 131.22 153.087 133.226C153.248 135.232 155.003 136.729 157.011 136.566C165.44 135.889 172.042 128.732 172.042 120.271L172.042 100.745L180.794 100.745C182.323 105.324 186.648 108.634 191.734 108.634L198.785 108.634C203.871 108.634 208.196 105.324 209.725 100.745L219.07 100.745C220.599 105.324 224.924 108.634 230.01 108.634L237.061 108.634C243.421 108.634 248.594 103.461 248.594 97.1014C248.594 90.7417 243.421 85.5683 237.061 85.5683L230.01 85.5683C224.923 85.5683 220.599 88.8791 219.07 93.4578L209.725 93.4578C208.196 88.8791 203.871 85.5683 198.785 85.5683L191.734 85.5683C186.648 85.5683 182.323 88.8791 180.794 93.4578L172.042 93.4578L172.042 67.7984C172.042 62.3331 167.725 57.8685 162.324 57.6047L162.324 37.7711C162.324 34.6984 161.948 31.6247 161.205 28.6355C160.72 26.682 158.742 25.4908 156.791 25.9781C154.838 26.4629 153.648 28.4392 154.133 30.3926C154.733 32.8071 155.037 35.2896 155.037 37.7711L155.037 57.579L144.835 57.579L144.835 37.7711C144.835 26.5873 135.736 17.4891 124.553 17.4891C113.37 17.4891 104.271 26.5878 104.271 37.7711L104.271 57.579L94.069 57.579L94.069 37.7711C94.069 20.9621 107.744 7.28712 124.553 7.28712C133.512 7.28712 141.984 11.2134 147.797 18.0594C149.099 19.5936 151.399 19.7821 152.932 18.4792C154.466 17.1762 154.654 14.8774 153.352 13.3437C146.152 4.86343 135.656 -1.96685e-07 124.553 -1.80588e-07C103.726 -1.50391e-07 86.7819 16.944 86.7819 37.7711L86.7819 57.5833C81.1858 57.629 76.6465 62.1917 76.6465 67.7979L76.6465 93.4574L67.8009 93.4574C66.272 88.8786 61.9469 85.5678 56.8609 85.5678L49.8094 85.5678C44.723 85.5678 40.3984 88.8786 38.8695 93.4574L29.5245 93.4574C27.9957 88.8786 23.671 85.5678 18.5846 85.5678L11.5331 85.5678C5.17386 85.5678 1.31564e-07 90.7412 1.40785e-07 97.1009C1.50006e-07 103.461 5.17386 108.634 11.5331 108.634ZM230.01 92.8554L237.062 92.8554C239.403 92.8554 241.308 94.7603 241.308 97.1014C241.308 99.4425 239.403 101.347 237.062 101.347L230.01 101.347C227.669 101.347 225.764 99.4425 225.764 97.1014C225.764 94.7603 227.669 92.8554 230.01 92.8554ZM191.734 92.8554L198.785 92.8554C201.126 92.8554 203.031 94.7603 203.031 97.1014C203.031 99.4425 201.126 101.347 198.785 101.347L191.734 101.347C189.393 101.347 187.488 99.4425 187.488 97.1014C187.488 94.7603 189.393 92.8554 191.734 92.8554ZM111.558 37.7711C111.558 30.6059 117.388 24.7762 124.553 24.7762C131.718 24.7762 137.548 30.6059 137.548 37.7711L137.548 57.579L111.558 57.579L111.558 37.7711ZM49.8094 92.8554L56.8609 92.8554C59.202 92.8554 61.1069 94.7603 61.1069 97.1014C61.1069 99.4425 59.202 101.347 56.8609 101.347L49.8094 101.347C47.4683 101.347 45.5635 99.4425 45.5635 97.1014C45.5635 94.7603 47.4683 92.8554 49.8094 92.8554ZM11.5331 92.8554L18.5846 92.8554C20.9257 92.8554 22.8306 94.7603 22.8306 97.1014C22.8306 99.4425 20.9262 101.347 18.5846 101.347L11.5331 101.347C9.19198 101.347 7.28712 99.4425 7.28712 97.1014C7.28712 94.7603 9.19198 92.8554 11.5331 92.8554Z" fill="#1D4D7A"/>
</svg>
